inDegrees=no
num_controls=7
num_derivatives=13
num_iterations=122
num_multipliers=7
num_parameters=0
num_slacks=7
num_states=26
objective=0.497106
objective_accelerations=0.032407
objective_balance=0.003261
objective_effort=0.035077
objective_height=0.420861
objective_ligament=0.005500
solver_duration=1398.217948
status=Solve_Succeeded
success=true
DataType=double
version=3
OpenSimVersion=4.5
endheader
time	/jointset/ground_pelvis/pelvis_tilt/value	/jointset/ground_pelvis/pelvis_tx/value	/jointset/ground_pelvis/pelvis_ty/value	/jointset/hip_r/hip_flexion_r/value	/jointset/hip_r/hip_adduction_r/value	/jointset/hip_r/hip_rotation_r/value	/jointset/back/lumbar_extension/value	/jointset/patellofemoral_r/patellar_flexion_r/value	/jointset/knee_r/knee_flexion_r/value	/jointset/knee_r/knee_adduction_r/value	/jointset/knee_r/knee_rotation_r/value	/jointset/ankle_r/ankle_angle_r/value	/jointset/subtalar_r/subtalar_angle_r/value	/jointset/ground_pelvis/pelvis_tilt/speed	/jointset/ground_pelvis/pelvis_tx/speed	/jointset/ground_pelvis/pelvis_ty/speed	/jointset/hip_r/hip_flexion_r/speed	/jointset/hip_r/hip_adduction_r/speed	/jointset/hip_r/hip_rotation_r/speed	/jointset/back/lumbar_extension/speed	/jointset/patellofemoral_r/patellar_flexion_r/speed	/jointset/knee_r/knee_flexion_r/speed	/jointset/knee_r/knee_adduction_r/speed	/jointset/knee_r/knee_rotation_r/speed	/jointset/ankle_r/ankle_angle_r/speed	/jointset/subtalar_r/subtalar_angle_r/speed	/forceset/tau_hip_flexion_r	/forceset/tau_hip_adduction_r	/forceset/tau_hip_rotation_r	/forceset/tau_knee_flexion_r	/forceset/tau_ankle_angle_r	/forceset/tau_subtalar_angle_r	/forceset/tau_lumbar_extension	lambda_cid13_p0	lambda_cid14_p0	lambda_cid14_p1	lambda_cid14_p2	lambda_cid14_p3	lambda_cid14_p4	lambda_cid14_p5	/jointset/ground_pelvis/pelvis_tilt/accel	/jointset/ground_pelvis/pelvis_tx/accel	/jointset/ground_pelvis/pelvis_ty/accel	/jointset/hip_r/hip_flexion_r/accel	/jointset/hip_r/hip_adduction_r/accel	/jointset/hip_r/hip_rotation_r/accel	/jointset/back/lumbar_extension/accel	/jointset/patellofemoral_r/patellar_flexion_r/accel	/jointset/knee_r/knee_flexion_r/accel	/jointset/knee_r/knee_adduction_r/accel	/jointset/knee_r/knee_rotation_r/accel	/jointset/ankle_r/ankle_angle_r/accel	/jointset/subtalar_r/subtalar_angle_r/accel	gamma_cid13_p0	gamma_cid14_p0	gamma_cid14_p1	gamma_cid14_p2	gamma_cid14_p3	gamma_cid14_p4	gamma_cid14_p5
1.5	-0.107966411810544	0.06207606327861118	0.8711971020174804	0.6646849850749782	-0.2275423660222519	-0.1438733170829888	-0.2798078267872942	0.6444495417577025	0.6444495417576992	0.04182250368462545	0.1744858854007289	0.2578068124784769	0.0585712898763834	0.2314947326697702	0.1155816136385844	0.3222344363977883	-1.435748747028896	0.01618309939930512	-0.276437879184859	0.6980840533282182	-1.734854433664071	-1.734854433664064	0.2835515641605041	0.0003253003215223981	-0.6212099369019373	-0.1568313009046408	-0.0655776647242068	-0.01598987701941807	0.006658745932159518	-0.3217685243988885	0.05414514332887597	-0.01206875882287504	0.1227896057725819	-34.38040109922714	-24.42368462015654	-5.493434260517766	-3.261104209284319	3.507010739120158	-663.4802996470444	57.10195425984001	0.03925501834614218	0.267344199136908	-0.4336975243295478	-0.7437275431575469	-0.02205339089471179	-0.5812887353502694	1.239153708925514	-1.055950878618969	-1.05595087861897	0.3765292592925191	-0.0004091489129492091	-0.4749243474826182	-0.0347558446681273	1.131394385428261e-07	1.551639191993066e-07	-5.162299116982717e-07	1.269456214309649e-06	-2.687735078321744e-08	1.796940872029292e-07	-8.868645490389565e-07
1.51	-0.1056499385405767	0.0632451019033165	0.8743970577214151	0.6502921868751184	-0.2273823491549509	-0.1466658064766679	-0.2727658386368472	0.627050503133327	0.6270505031333258	0.04467861585392724	0.1744892455363873	0.2515715610324182	0.05700045666710379	0.2317660406954904	0.1182094760669067	0.3176911678682946	-1.442618304955781	0.01582604820872412	-0.2820450825720092	0.7102166158746981	-1.744717128040048	-1.744717128040046	0.2876475842239654	0.0003344429538059404	-0.6257542973738885	-0.1573020334090886	-0.06013212772095351	-0.01790238872376529	0.006013484802558129	-0.3187173462680806	0.05825078942396172	-0.01280931261956802	0.1177317181273848	-35.26947443687206	-22.98592027486739	-5.451538759472173	-3.395457992921751	2.988050229317679	-660.5075793899967	57.26065396794316	0.01600190832902077	0.258011052396214	-0.4744346571746076	-0.6296630097038716	-0.04151380554504953	-0.5479886731764899	1.18576339454004	-0.9160304175819898	-0.9160304175827737	0.4226178179425849	-4.007071651486536e-05	-0.4312692346718036	-0.04819828284890171	1.248486771981576e-07	1.566695856201494e-07	-6.635496359251544e-07	1.292497212817905e-06	-1.21972213396149e-08	1.843120830856216e-07	-9.869673681940862e-07
1.52	-0.1033317655476233	0.06443991990984831	0.8775496221120719	0.6358364744775395	-0.2272256993640367	-0.1495138784107743	-0.2656054336875293	0.6095599172250926	0.6095599172250936	0.04757498411147754	0.1744923738903654	0.245293450514116	0.05542592286687658	0.2318346772669727	0.1207374900038821	0.3127561737422505	-1.448331586572665	0.01550968412193616	-0.2875543872703255	0.721767413102411	-1.753163890435821	-1.753163890435824	0.2916027818102132	0.0002789439854699157	-0.6297817513506564	-0.1575714190941681	-0.05468659071760865	-0.01981490042811248	0.005368223672956915	-0.3156661681372727	0.06235643551904747	-0.01354986641626096	0.1126738304821878	-36.1254987125598	-21.55731089276359	-5.408302912890357	-3.533388357403528	2.465467060043564	-657.6853428141861	57.49507695752121	-0.001279272501464336	0.2473745008675335	-0.5120426436396682	-0.5124722811574681	-0.01391597013577915	-0.5617089975837146	1.122800645172114	-0.7727644825780173	-0.7727644825780173	0.3483647638498303	-0.01333746903673573	-0.3715430484459268	0.005513519205556146	1.350218962729266e-07	1.571473911520401e-07	-7.946581214960124e-07	1.306178559172367e-06	1.358650119350287e-09	1.879920625352103e-07	-1.073082679683671e-06
1.53	-0.1010139162042667	0.0656595012603315	0.8806509236152302	0.6213294518506363	-0.2270720266865777	-0.1524168547499271	-0.2583324685178749	0.5919920593993647	0.5919920593993634	0.05051003755713562	0.1744949021690115	0.2389777150727327	0.05384969845955671	0.2317034826575758	0.1231600692613983	0.3074436747743145	-1.452875356545366	0.01523382545555722	-0.2930303440881041	0.7327217003779737	-1.760158158907703	-1.760158158907701	0.2953723446978724	0.0002211409046309547	-0.6332708500738028	-0.1576356540411787	-0.0492070018981793	-0.0218912805148427	0.004743167460541185	-0.3126479395602841	0.06655791690130561	-0.014386444891469	0.1075997554467728	-36.94397445706763	-20.10746341903814	-5.408164815483583	-3.658606745682139	1.940809973350262	-654.9309038521351	57.69276427431594	-0.02378058560979886	0.2368970810263476	-0.5498829182507419	-0.3956735614203265	-0.03294637511155714	-0.538733049229235	1.066154701175003	-0.6253602863120212	-0.6253602863112636	0.3858615400199713	-0.002610208596805481	-0.323400780552655	-0.006718491255001471	1.435630945433478e-07	1.565330944894191e-07	-9.085421659948445e-07	1.309915275113422e-06	1.371999746963829e-08	1.906753995246266e-07	-1.144336264278615e-06
1.54	-0.09869832701309439	0.06690274789195638	0.8836972942497331	0.606782922682787	-0.226920817707827	-0.1553742294623286	-0.2509530780889795	0.574361738437554	0.5743617384375507	0.05348170852942946	0.1744967307206514	0.2326299271448571	0.05227396640484661	0.2313826468301091	0.125470546232222	0.3017700000111694	-1.456232894761823	0.01501694438027409	-0.2984340619200548	0.7430524649506028	-1.765656517652333	-1.765656517652326	0.2989262871373714	0.0001389985842187806	-0.636192248649096	-0.1574729485722145	-0.04372741307874995	-0.02396766060156996	0.004118111248125389	-0.3096297109832956	0.07075939828356373	-0.01522302336667702	0.1025256804113578	-37.72040695902783	-18.66743416000979	-5.40658037751958	-3.787672276828799	1.412751325608536	-652.3399262006498	57.97001724795735	-0.03920751611540822	0.2249540435290158	-0.5842778026816429	-0.2752259299086979	-0.002120451916616826	-0.547261200418132	0.9980961045854108	-0.4735825371274482	-0.4735825371274481	0.3052406742177586	-0.01820531695138271	-0.258003018875293	0.05090160240052367	1.532939240286579e-07	1.55284278910505e-07	-1.04037985656748e-06	1.308838778365431e-06	2.802772716436125e-08	1.937160956529211e-07	-1.219584575811315e-06
1.55	-0.09638692293918359	0.06816849041484896	0.8866851671845074	0.5922088768917332	-0.2267714956418275	-0.1583856963661434	-0.2434736597707079	0.5566840537799805	0.5566840537799798	0.0564876340130946	0.1744980215350968	0.2262557923116705	0.05070098779052651	0.2308647620147503	0.1276539952380024	0.2957488451391458	-1.458362857523158	0.01485996868196227	-0.303853288372108	0.752708705063507	-1.769613414391939	-1.769613414391935	0.3022099012137371	0.0001230678046394324	-0.6385345763971536	-0.1570810828533661	-0.0380843316415806	-0.02622210787167354	0.00349851558987522	-0.3067717974336729	0.07519474745234377	-0.01620946809403253	0.09732093165539829	-38.45031547688917	-17.16440531293952	-5.466983518817758	-3.897794858390319	0.8857811180533219	-649.7964000526216	58.18661506148302	-0.06307497890873524	0.2114566173856329	-0.6193557828302455	-0.149852824912054	-0.02051914192324585	-0.5381063555862828	0.9310139186120261	-0.316727434395497	-0.3167274343962374	0.3324871197672698	0.007523833706247861	-0.207299874734874	0.03953500172944427	1.643954155659051e-07	1.533043871889052e-07	-1.192903269790368e-06	1.302216623519191e-06	4.457802782115046e-08	1.971685316586189e-07	-1.29943550751143e-06
1.56	-0.09408169691635891	0.06945535068545589	0.8896111642798877	0.5776199371979326	-0.226623349935438	-0.1614511261320762	-0.2359013538605134	0.5389748033166073	0.5389748033166092	0.05952490870660766	0.1744993152001799	0.2198612437566106	0.0491331690224143	0.2301470366128857	0.1296940957750903	0.2893948321324185	-1.459211675311139	0.0147816724582869	-0.309226634343658	0.7616299833351763	-1.771969678812286	-1.771969678812289	0.3051961291069543	0.000139568711757875	-0.6402749930237659	-0.1564409793306325	-0.03244125020455836	-0.02847655514177709	0.002878919931624768	-0.3039138838840502	0.0796300966211238	-0.01719591282138799	0.09211618289943872	-39.12932483036678	-15.67158711780341	-5.525564622906269	-4.012332017099488	0.3549079382948834	-647.425920515115	58.48619263433297	-0.07917563341655638	0.1962843497904819	-0.6508494296223758	-0.01899693523785696	0.01361544301344376	-0.5380851043176986	0.8511037363384868	-0.153456073276453	-0.1534560732764535	0.2457634375880383	-0.01171897961188034	-0.1376207945862294	0.1005491631562815	1.763331489538984e-07	1.525915223026463e-07	-1.350526547751185e-06	1.300015935450252e-06	6.006579437070835e-08	2.058255383673803e-07	-1.379812883607232e-06
1.57	-0.0917845813423777	0.0707618457615308	0.8924720169297224	0.5630289201493692	-0.2264757265850313	-0.1645699793213945	-0.2282438019136823	0.5212501194073295	0.5212501194073312	0.06259083388128232	0.1745010419677878	0.2134522946920494	0.04757281251972328	0.2292436618261423	0.1315754629553368	0.2827245358474527	-1.458763320514588	0.01474605683975259	-0.3144915390167375	0.7697342083388117	-1.772677983848189	-1.772677983848189	0.3079700803812969	0.0001867402172702975	-0.6414101306710598	-0.1556021555524359	-0.02662065244383336	-0.03097022011058709	0.00225900233646802	-0.3012449198106412	0.08432598387038841	-0.01832403311710318	0.08676967390771723	-39.7532065278472	-14.10694949420148	-5.639427065876821	-4.11082837664573	-0.1772449871648807	-645.1068298602391	58.74086537083592	-0.100766772147835	0.1796609050347161	-0.6827480823332468	0.1110308739542384	-0.01163852169179128	-0.5125605016132897	0.7681522285421191	0.01381080226483308	0.01381080226522485	0.2902425797916873	0.01030769910072375	-0.08572257425990966	0.07967467289915217	1.893161846553242e-07	1.534624409605635e-07	-1.514524656634416e-06	1.303342080852939e-06	7.42253932862271e-08	2.209882584549714e-07	-1.460848315197643e-06
1.58	-0.08949746919043282	0.07208627410998678	0.8952646409458277	0.5484492424861419	-0.2263283570822908	-0.1677398550280056	-0.2205095936475816	0.5035270181518948	0.5035270181518967	0.06568390489018726	0.1745027149471445	0.2070351417861235	0.04602166939236377	0.2281463522056149	0.1332807502513027	0.2757491053865055	-1.456943798243933	0.0147309029250214	-0.3194311378022256	0.7769612471890889	-1.771653148043607	-1.771653148043605	0.3106252959530079	0.0001288110615109222	-0.641915761296712	-0.1545983042643275	-0.02080005468310829	-0.03346388507940732	0.00163908474131117	-0.2985759557372323	0.089021871119653	-0.01945215341281831	0.08142316491599579	-40.32066500843447	-12.55136217573043	-5.751068174637988	-4.214027092319918	-0.7173745794531924	-642.9465516148862	59.07888284151522	-0.1179626001733414	0.1610683729343469	-0.7118762648185258	0.2552365595828454	0.01770778377406983	-0.4730239267994104	0.6756665056668384	0.193172094820708	0.1931720948207068	0.2220162970612851	-0.03273911186510015	-0.01171939025795429	0.133554665138624	2.012537385154258e-07	1.563701308362252e-07	-1.662145169533346e-06	1.313241827593975e-06	8.460605367512016e-08	2.459146048059611e-07	-1.537114383782119e-06
1.59	-0.08722209687945569	0.07342683376966323	0.8979860761487831	0.5338944322197732	-0.2261811314318936	-0.1709577119666147	-0.2127078717141333	0.4858229007462286	0.4858229007462295	0.06880297967550678	0.1745035671569679	0.2006160824164025	0.04448127678283749	0.2269003564659532	0.1347968897495363	0.2684922149341041	-1.453776374238525	0.01471087511982555	-0.3240810892552216	0.7832168768560369	-1.768853394202534	-1.768853394202534	0.313172503858583	3.089422787696848e-05	-0.6417821661668378	-0.1534589277621455	-0.01491246165465875	-0.03610991986844719	0.001004102216145656	-0.2960118767109182	0.0938126971006062	-0.02073398845178642	0.0760302129571065	-40.83158398038749	-10.98185330944639	-5.933308336983892	-4.298798201919555	-1.225308660757945	-640.9145284778854	59.33506238558394	-0.1320683980724298	0.1417615457376047	-0.7393921073149597	0.3837943588825485	-0.01233609391787648	-0.4518246633898923	0.5755718005309719	0.3708742535898029	0.3708742535892469	0.2683224385914743	0.0003116526749188386	0.04303108061309149	0.1071879038564661	2.117724241623016e-07	1.620420102216832e-07	-1.787538945025009e-06	1.332062890437054e-06	8.985815463502151e-08	2.84091586800134e-07	-1.606907745429968e-06
